<svg width="411" height="411" viewBox="0 0 411 411" fill="none" xmlns="http://www.w3.org/2000/svg">
<path fill-rule="evenodd" clip-rule="evenodd" d="M0 205.5C0 318.764 92.236 411 205.5 411C251.521 411 294.07 395.773 328.371 370.094C329.5 369.455 330.531 368.667 331.438 367.754C379.812 330.113 411 271.362 411 205.5C411 92.236 318.764 0 205.5 0C92.236 0 0 92.236 0 205.5ZM334.44 325.901C335.35 331.725 335.879 337.683 336 343.749V348.533C336 351.881 336 354.751 335.521 358.578C335.295 362.201 333.781 365.394 331.438 367.754C330.423 368.543 329.401 369.324 328.371 370.094C326.253 371.294 323.791 371.972 321.159 371.972H320.202C312.063 371.494 306.318 364.318 306.797 356.665C306.797 355.164 306.928 353.664 307.053 352.232C307.131 351.336 307.207 350.468 307.247 349.643C317.103 342.665 326.215 334.703 334.44 325.901ZM77.2988 326.686C47.3746 295.047 29 252.377 29 205.5C29 108.186 108.186 29 205.5 29C302.814 29 382 108.186 382 205.5C382 251.99 363.927 294.343 334.44 325.901C324.506 262.367 269.17 214.712 203.39 216.027C138.589 217.313 86.0983 265.111 77.2988 326.686ZM77.2988 326.686C85.6155 335.48 94.8243 343.421 104.779 350.363C104.802 352.196 104.892 354.163 105.25 356.665C105.728 364.797 99.9836 371.494 91.8452 371.972C83.7067 372.451 77.0044 366.71 76.5256 358.578C76.0469 354.751 76.0469 351.403 76.0469 348.533C75.8485 341.1 76.282 333.801 77.2988 326.686ZM104.779 350.363C104.771 349.743 104.771 349.138 104.771 348.533V344.227C105.728 288.259 152.166 243.771 208.178 245.207C264.19 246.163 308.712 292.564 307.276 348.533C307.276 348.892 307.265 349.263 307.247 349.643C278.471 370.016 243.357 382 205.5 382C168.091 382 133.361 370.298 104.779 350.363ZM147 142.5C147 174.339 172.661 200 204.5 200C236.339 200 262 174.339 262 142.5C262 110.661 236.339 85 204.5 85C172.661 85 147 110.661 147 142.5ZM176 143.5C176 127.057 189.057 114 205.5 114C221.943 114 235 127.057 235 143.5C235 159.943 221.943 173 205.5 173C189.057 173 176 159.943 176 143.5Z" fill="#F9FAFF"/>
</svg>
