<svg width="434" height="431" fill="none" xmlns="http://www.w3.org/2000/svg"><path fill-rule="evenodd" clip-rule="evenodd" d="M11 213.5C11 326.764 103.236 419 216.5 419c46.021 0 88.57-15.227 122.871-40.906a14.14 14.14 0 003.067-2.34C390.812 338.113 422 279.362 422 213.5 422 100.236 329.764 8 216.5 8S11 100.236 11 213.5zm334.44 120.401a132.716 132.716 0 011.56 17.848v4.784c0 3.348 0 6.218-.479 10.045-.226 3.623-1.74 6.816-4.083 9.176-1.015.789-2.037 1.57-3.067 2.34a14.58 14.58 0 01-7.212 1.878h-.957c-8.139-.478-13.884-7.654-13.405-15.307 0-1.501.131-3.001.256-4.433.078-.896.154-1.764.194-2.589a177.997 177.997 0 0027.193-23.742zm-257.141.785C58.375 303.047 40 260.377 40 213.5 40 116.186 119.186 37 216.5 37S393 116.186 393 213.5c0 46.49-18.073 88.843-47.56 120.401-9.934-63.534-65.27-111.189-131.05-109.874-64.801 1.286-117.292 49.084-126.091 110.659zm0 0a177.855 177.855 0 0027.48 23.677c.023 1.833.113 3.8.471 6.302.478 8.132-5.266 14.829-13.405 15.307-8.138.479-14.84-5.262-15.32-13.394-.478-3.827-.478-7.175-.478-10.045a129.846 129.846 0 011.252-21.847zm27.48 23.677c-.008-.62-.008-1.225-.008-1.83v-4.306c.957-55.968 47.395-100.456 103.407-99.02 56.012.956 100.534 47.357 99.098 103.326 0 .359-.011.73-.029 1.11C289.471 378.016 254.357 390 216.5 390c-37.409 0-72.139-11.702-100.721-31.637zM158 150.5c0 31.839 25.661 57.5 57.5 57.5s57.5-25.661 57.5-57.5S247.339 93 215.5 93 158 118.661 158 150.5zm29 1c0-16.443 13.057-29.5 29.5-29.5 16.443 0 29.5 13.057 29.5 29.5 0 16.443-13.057 29.5-29.5 29.5-16.443 0-29.5-13.057-29.5-29.5z" fill="#F9FAFF"/><path d="M119.582 383.064c.966 8.693 15.125 13.248 22.281 13.248 7.749 0 14.28 7.226 22.281 7.226 10.678 0 21.086 2.409 31.916 2.409h28.302c5.499 0 10.441-2.119 15.657-2.409 4.04-.224 10.223-.995 13.85-3.011 3.511-1.95 9.307-2.201 13.249-3.077 4.02-.894 7.387-3.321 11.441-3.547 8.783-.487 19.49-4.806 27.098-9.032 3.73-2.073 5.084-2.591 7.829-6.022 3.053-3.817 8.68-4.839 12.044-7.829 3.051-2.712 5.797-5.262 8.698-8.163 2.268-2.268.937-9.702.937-12.913 0-3.588-2.501-10.162-4.216-13.248-2.108-3.795-1.399-9.622-3.278-13.85-3.59-8.078-7.033-16.527-12.446-23.486-1.67-2.147-15.608-20.889-15.255-21.344 3.14-4.037-10.333-14.547-13.516-15.456-3.655-1.044-6.313-5.955-10.906-5.955-4.451 0-7.453-3.613-11.441-3.613-7.918 0-14.989-6.433-22.214-8.498-7.506-2.144-15.048-4.278-23.553-4.75-8.827-.491-17.69 1.204-25.893 1.204-2.885 0-6.71 2.864-9.569 3.68-3.343.956-11.994 5.139-14.853 7.427-2.773 2.218-6.547 2.791-9.903 4.282-3.242 1.441-6.797 5.459-10.237 6.223-6.684 1.485-12.852 11.113-17.464 15.724-2.667 2.668-6.44 6.19-8.163 9.635-1.336 2.672-3.679 10.437-5.687 12.043-2.352 1.882-4.215 9.789-4.215 12.646 0 4.944-1.357 9.377-3.346 13.851-3.492 7.858-2.094 17.281-6.289 24.622-4.88 8.539-11.559 5.393-17.798.402-2.823-2.258-5.27-5.405-7.762-7.896-2.66-2.66-5.81-5.154-8.162-8.096-4.49-5.611-10.691-11.68-14.185-18.667-3.104-6.208-10.313-13.18-12.245-19.939-1.08-3.78-2.71-7.917-3.613-11.977-.91-4.099-4.646-7.157-4.884-11.442-.586-10.544-6.022-21.201-6.022-31.916 0-9.218-2.409-19.356-2.409-28.302 0-9.357.407-16.815 2.543-25.359 2.712-10.851 9.13-21.403 14.05-31.247 1.869-3.736 2.054-7.272 5.353-10.571 1.304-1.304.937-2.978 2.141-4.483 2.1-2.624 3.112-2.01 3.68-6.557.74-5.911.358-8.517-1.204-13.985-1.837-6.428 6.698-8.154 9.3-12.579 1.316-2.236 3.348-4.722 5.621-6.021 1.097-.627 5.828-3.951 6.423-4.818.694-1.008 2.301-4.452 3.346-4.75 1.57-.449-2.5-20.351-2.275-23.954.095-1.523 8.52-2.534 10.036-2.61 4.329-.216 7.731-3.765 11.643-5.486 6.25-2.75 16.467-4.958 21.812-9.234 4.607-3.686 11.248-5.952 16.861-7.895 5.426-1.878 10.517-5.085 16.46-5.085 12.86 0 24.751-9.84 37.737-10.84 14.576-1.12 29.113-2.408 44.093-2.408 6.509 0 14.149 2.493 20.675 3.68 9.138 1.661 17.592 4.534 26.497 6.892 7.366 1.95 13.837 2.624 21.009 6.021 4.33 2.052 8.249 4.336 12.646 6.29 9.765 4.34 22.565 8.938 28.035 19.27 2.208 4.17 8.887 8.44 12.311 12.043 5.533 5.824 9.438 13.439 13.985 20.007 3.833 5.536 9.217 9.824 12.512 15.589 3.212 5.623 5.286 12.379 9.367 16.46 4.327 4.327 3.825 15.92 6.022 21.411 2.655 6.638 4 14.057 5.687 21.144 3.309 13.898 6.624 25.453 6.624 40.011v22.884c0 5.387.431 13.946-1.806 18.868-4.063 8.937-8.386 19.559-11.174 29.039-3.095 10.523-8.076 20.589-13.516 30.109-4.494 7.865-8.376 18.991-14.452 25.827-3.229 3.632-3.614 10.025-3.614 1.472v-22.615c0-12.121-7.807-20.625-8.43-31.849-.339-6.095-4.581-12.843-5.754-19.003-.96-5.036-2.783-8.754-4.483-13.515-1.37-3.835-1.203-8.119-2.409-11.977-3.797-12.151-11.269-21.181-17.999-31.648-9.432-14.673-23.201-26.218-31.313-41.283-3.269-6.071-10.308-11.518-12.713-18.133-1.996-5.488-6.649-10.128-10.572-14.051-14.289-14.289-30.74-32.25-52.323-32.25-4.698 0-9.495-.276-14.185 0-3.628.213-7.878 5.469-10.237 7.828a118.725 118.725 0 00-9.568 10.839c-3.945 5.073-4.184 12.637-6.156 18.668-2.3 7.036-4.148 17.011-4.148 24.355 0 4.859-2.431 9.889-1.071 14.988 3.55 13.311 18.289 13.65 29.976 13.65h17.129c6.734 0 9.91-2.057 15.523-5.487 2.808-1.716 5.458-4.118 8.296-5.62 2.459-1.302 1.957-3.298 4.149-4.55 3.474-1.985 4.596-6.782 7.895-8.431" stroke="#000" stroke-width="50" stroke-linecap="round"/></svg>