<svg width="411" height="411" fill="none" xmlns="http://www.w3.org/2000/svg"><path fill-rule="evenodd" clip-rule="evenodd" d="M0 205.5C0 318.764 92.236 411 205.5 411c46.021 0 88.57-15.227 122.871-40.906a14.14 14.14 0 003.067-2.34C379.812 330.113 411 271.362 411 205.5 411 92.236 318.764 0 205.5 0S0 92.236 0 205.5zm334.44 120.401a132.716 132.716 0 011.56 17.848v4.784c0 3.348 0 6.218-.479 10.045-.226 3.623-1.74 6.816-4.083 9.176-1.015.789-2.037 1.57-3.067 2.34a14.58 14.58 0 01-7.212 1.878h-.957c-8.139-.478-13.884-7.654-13.405-15.307 0-1.501.131-3.001.256-4.433.078-.896.154-1.764.194-2.589a177.997 177.997 0 0027.193-23.742zm-257.141.785C47.375 295.047 29 252.377 29 205.5 29 108.186 108.186 29 205.5 29S382 108.186 382 205.5c0 46.49-18.073 88.843-47.56 120.401-9.934-63.534-65.27-111.189-131.05-109.874-64.801 1.286-117.292 49.084-126.091 110.659zm0 0a177.869 177.869 0 0027.48 23.677c.023 1.833.113 3.8.471 6.302.478 8.132-5.266 14.829-13.405 15.307-8.138.479-14.84-5.262-15.32-13.394-.478-3.827-.478-7.175-.478-10.045a129.846 129.846 0 011.252-21.847zm27.48 23.677c-.008-.62-.008-1.225-.008-1.83v-4.306c.957-55.968 47.395-100.456 103.407-99.02 56.012.956 100.534 47.357 99.098 103.326 0 .359-.011.73-.029 1.11C278.471 370.016 243.357 382 205.5 382c-37.409 0-72.139-11.702-100.721-31.637zM147 142.5c0 31.839 25.661 57.5 57.5 57.5s57.5-25.661 57.5-57.5S236.339 85 204.5 85 147 110.661 147 142.5zm29 1c0-16.443 13.057-29.5 29.5-29.5 16.443 0 29.5 13.057 29.5 29.5 0 16.443-13.057 29.5-29.5 29.5-16.443 0-29.5-13.057-29.5-29.5z" fill="#F9FAFF"/></svg>